<?xml version="1.0" standalone="no"?>
<!DOCTYPE svg PUBLIC "-//W3C//DTD SVG 20010904//EN"
 "http://www.w3.org/TR/2001/REC-SVG-20010904/DTD/svg10.dtd">
<svg version="1.0" xmlns="http://www.w3.org/2000/svg"
 width="1024.000000pt" height="1024.000000pt" viewBox="0 0 1024.000000 1024.000000"
 preserveAspectRatio="xMidYMid meet">

<g transform="translate(0.000000,1024.000000) scale(0.100000,-0.100000)"
fill="#000000" stroke="none">
<path d="M3391 7813 c-45 -37 -77 -242 -68 -431 16 -314 126 -508 348 -611 76
-36 222 -79 294 -87 68 -8 96 7 179 98 81 90 113 147 131 235 17 83 9 129 -27
156 -25 19 -41 20 -181 18 -172 -2 -239 12 -321 68 -133 92 -240 284 -261 470
-10 90 -46 123 -94 84z"/>
<path d="M6781 7811 c-12 -12 -22 -45 -30 -95 -31 -212 -165 -416 -321 -490
-64 -30 -69 -31 -251 -36 -203 -5 -214 -9 -224 -64 -9 -45 10 -149 38 -209 28
-62 110 -154 174 -196 60 -40 126 -41 249 -5 227 65 351 163 429 340 67 151
91 383 60 579 -19 125 -34 169 -63 184 -29 15 -39 14 -61 -8z"/>
<path d="M4408 7199 c-15 -8 -18 -24 -18 -87 0 -141 -40 -246 -141 -372 -77
-96 -94 -127 -79 -145 7 -8 58 -39 114 -70 384 -211 622 -560 643 -946 7 -133
-7 -219 -55 -322 -31 -68 -34 -80 -21 -92 12 -12 28 -13 89 -5 97 12 277 12
364 0 38 -6 77 -8 88 -5 26 9 22 39 -11 86 -55 75 -66 127 -66 299 0 179 15
248 92 435 149 362 162 481 60 544 -47 29 -88 26 -188 -10 -108 -39 -193 -47
-291 -25 -185 41 -269 146 -304 378 -8 54 -24 123 -35 153 -25 66 -95 146
-152 174 -48 23 -64 25 -89 10z"/>
<path d="M4707 7183 c-16 -18 -15 -21 5 -59 33 -63 55 -135 72 -242 25 -157
56 -221 124 -259 99 -56 207 -59 354 -9 57 19 121 37 142 41 53 9 96 55 96
101 0 22 -19 72 -50 133 -34 67 -53 118 -58 159 -10 70 -30 105 -75 129 -28
16 -67 18 -312 21 -263 3 -282 2 -298 -15z"/>
<path d="M5534 7186 c-49 -21 -61 -63 -40 -138 9 -34 32 -87 51 -119 18 -32
45 -91 60 -131 35 -97 58 -132 110 -168 85 -58 132 -73 231 -74 77 -1 95 2
113 18 38 35 28 66 -54 154 -115 125 -155 220 -155 368 0 49 -5 85 -12 92 -17
17 -263 16 -304 -2z"/>
<path d="M3430 6595 c-132 -27 -216 -69 -256 -127 -72 -104 32 -236 240 -305
71 -24 97 -27 211 -27 174 -1 271 28 411 121 57 38 71 38 119 -1 l29 -23 -41
-47 c-47 -54 -68 -118 -59 -178 4 -23 81 -197 172 -387 91 -190 186 -392 212
-448 25 -57 51 -103 57 -103 18 0 116 70 161 115 99 100 140 226 131 404 -19
355 -249 672 -628 866 -258 132 -541 184 -759 140z m1044 -542 c33 -33 41 -74
22 -112 -31 -58 -80 -75 -136 -46 -37 19 -50 43 -50 95 0 87 101 126 164 63z"/>
<path d="M6450 6595 c-47 -8 -136 -32 -199 -54 -510 -182 -831 -561 -834 -986
-1 -185 51 -303 180 -406 82 -65 109 -77 128 -58 7 8 45 83 84 166 39 84 112
237 162 340 175 362 183 383 183 443 0 62 -24 115 -75 169 -34 36 -34 35 23
66 15 8 31 15 36 15 5 0 46 -23 92 -50 117 -70 218 -101 356 -107 100 -5 121
-3 205 21 110 32 184 73 244 137 73 78 71 147 -7 214 -104 89 -345 126 -578
90z m-549 -544 c56 -56 29 -153 -47 -167 -99 -18 -165 97 -95 167 23 23 38 29
71 29 33 0 48 -6 71 -29z"/>
<path d="M5593 6543 c4 -10 16 -52 27 -93 29 -99 58 -122 100 -80 39 39 14
123 -49 166 -43 29 -86 33 -78 7z"/>
<path d="M4980 5064 c-196 -18 -401 -67 -476 -113 -42 -26 -80 -77 -93 -127
-22 -84 27 -222 114 -322 302 -342 976 -313 1227 53 63 92 81 148 76 234 -3
56 -9 75 -31 105 -51 66 -191 121 -387 152 -97 15 -348 25 -430 18z m-280
-230 c91 -42 131 -94 145 -185 13 -88 -32 -169 -69 -128 -32 36 -197 261 -208
283 -26 58 40 73 132 30z m961 10 c20 -24 4 -53 -106 -201 -109 -147 -126
-157 -152 -96 -34 82 5 211 80 262 74 50 152 66 178 35z"/>
<path d="M4962 3838 c-43 -84 -78 -155 -76 -157 7 -7 117 72 172 124 30 27 60
62 68 77 31 60 8 108 -51 108 -33 0 -34 -2 -113 -152z"/>
<path d="M4575 3894 c-55 -18 -102 -33 -104 -33 -3 -1 8 -14 23 -30 l28 -29 5
-379 c7 -409 4 -435 -44 -473 -14 -11 -24 -23 -21 -25 3 -3 72 -4 154 -3 122
2 144 5 124 14 -56 26 -55 9 -60 519 l-5 471 -100 -32z"/>
<path d="M3020 3421 l0 -500 118 -3 c186 -5 279 6 355 41 113 51 215 166 246
276 75 267 -15 535 -213 634 -86 42 -140 51 -328 51 l-178 0 0 -499z m369 460
c79 -41 145 -142 170 -261 21 -96 24 -266 8 -358 -39 -213 -140 -322 -299
-322 l-67 0 -1 478 c0 263 3 482 7 486 13 14 142 -3 182 -23z"/>
<path d="M5831 3906 c-91 -50 -52 -195 53 -196 53 0 106 52 106 105 0 29 -8
45 -34 71 -37 37 -81 44 -125 20z"/>
<path d="M5412 3618 c-164 -24 -272 -169 -272 -363 1 -200 129 -355 295 -355
90 0 196 59 245 137 42 66 37 80 -10 29 -86 -93 -216 -87 -303 14 -95 111 -84
399 18 488 38 34 81 47 125 37 57 -13 81 -67 40 -92 -35 -22 -53 -70 -40 -108
22 -68 103 -71 148 -5 19 28 22 43 17 75 -16 104 -125 163 -263 143z"/>
<path d="M4037 3605 c-214 -79 -279 -429 -113 -613 105 -116 306 -117 410 -2
40 44 82 120 66 120 -5 0 -10 -4 -10 -8 0 -16 -64 -74 -98 -88 -75 -31 -175
-10 -229 48 -32 34 -60 104 -68 171 l-6 57 207 0 207 0 -6 65 c-11 116 -67
207 -152 246 -48 22 -152 24 -208 4z m142 -11 c36 -25 53 -79 59 -186 l5 -98
-127 0 -126 0 0 33 c0 55 27 161 50 200 36 62 94 82 139 51z"/>
<path d="M6246 3605 c-105 -37 -150 -159 -79 -215 37 -29 79 -26 114 9 16 16
29 36 29 45 0 26 -22 65 -47 81 -28 19 -29 36 -4 59 28 26 91 31 129 12 43
-22 59 -58 67 -152 8 -94 2 -104 -88 -144 -165 -72 -198 -92 -225 -132 -54
-82 -27 -217 50 -249 42 -17 131 -14 174 7 22 11 48 33 59 51 23 37 35 42 35
12 0 -11 13 -34 29 -50 26 -26 37 -29 89 -29 62 0 122 15 122 31 0 5 -10 7
-23 4 -15 -4 -32 1 -48 13 l-24 20 -1 244 c-1 211 -4 250 -19 282 -23 48 -77
92 -131 105 -58 15 -161 13 -208 -4z m206 -416 c-2 -149 -11 -183 -54 -213
-50 -35 -99 -15 -123 49 -35 90 0 178 102 253 37 28 70 51 73 51 3 1 4 -62 2
-140z"/>
<path d="M6875 3604 c-117 -43 -161 -189 -91 -308 28 -48 35 -52 259 -156 129
-60 87 -220 -58 -220 -86 0 -162 66 -206 179 l-18 46 -1 -101 c0 -119 -3 -116
135 -136 183 -26 302 41 313 177 11 132 -33 191 -189 251 -124 48 -169 83
-175 139 -9 72 54 135 133 135 59 0 130 -69 170 -165 10 -25 21 -45 26 -45 4
0 7 43 7 95 l0 94 -52 16 c-64 19 -200 19 -253 -1z"/>
<path d="M4895 3578 c-49 -17 -91 -32 -93 -33 -2 -1 11 -16 28 -33 l30 -30 0
-248 0 -247 -36 -33 -35 -34 152 0 152 0 -39 34 -39 34 -3 311 c-2 234 -6 311
-15 310 -7 0 -52 -14 -102 -31z"/>
<path d="M5853 3578 l-92 -31 29 -34 30 -34 0 -246 0 -246 -36 -33 -35 -34
152 0 153 0 -33 28 c-45 38 -49 70 -45 361 4 251 0 302 -20 300 -6 0 -52 -14
-103 -31z"/>
<path d="M4511 2700 c-92 -22 -146 -117 -116 -204 52 -151 284 -148 325 5 33
122 -80 231 -209 199z m110 -61 c18 -9 49 -68 49 -93 0 -40 -30 -87 -65 -102
-79 -32 -155 17 -155 100 0 89 88 138 171 95z"/>
<path d="M6015 2701 c-49 -12 -71 -28 -85 -61 -25 -60 16 -109 105 -124 63
-11 73 -15 78 -36 12 -45 -82 -67 -145 -34 -25 13 -32 14 -39 2 -13 -20 -11
-26 17 -45 37 -24 150 -24 187 0 83 54 43 146 -71 163 -84 13 -105 61 -36 84
25 9 43 9 66 1 44 -15 55 -14 61 9 3 13 -1 23 -11 29 -27 14 -94 20 -127 12z"/>
<path d="M4060 2546 l0 -156 105 0 c117 0 159 13 175 55 12 31 -1 68 -31 89
l-23 16 22 20 c29 27 28 62 -2 97 -23 27 -28 28 -135 31 l-111 4 0 -156z m200
85 c13 -25 13 -27 -6 -45 -10 -11 -34 -16 -75 -16 l-59 0 0 40 0 40 65 0 c53
0 66 -3 75 -19z m8 -123 c18 -18 15 -55 -5 -63 -10 -4 -46 -8 -80 -10 l-63 -4
0 45 0 44 68 0 c40 0 73 -5 80 -12z"/>
<path d="M4740 2693 c0 -5 29 -73 64 -153 62 -143 63 -145 95 -145 32 0 33 1
97 148 35 81 64 150 64 153 0 3 -14 4 -31 2 -30 -3 -34 -9 -78 -115 -25 -62
-48 -113 -51 -113 -3 0 -27 52 -54 115 -46 109 -50 115 -77 115 -16 0 -29 -3
-29 -7z"/>
<path d="M5107 2693 c-4 -3 -7 -73 -7 -155 l0 -148 30 0 30 0 0 155 0 155 -23
0 c-13 0 -27 -3 -30 -7z"/>
<path d="M5240 2545 l0 -155 30 0 29 0 3 98 3 97 83 -97 c63 -74 90 -98 108
-98 l24 0 0 155 0 155 -30 0 -29 0 -3 -97 -3 -97 -80 96 c-65 78 -85 97 -107
97 l-28 1 0 -155z"/>
<path d="M5677 2643 c-14 -32 -46 -102 -71 -155 l-45 -98 32 0 c29 0 35 5 46
35 l12 35 83 0 82 0 13 -35 c10 -29 17 -35 42 -35 16 0 29 3 29 8 0 4 -30 73
-66 155 -66 145 -67 147 -99 147 -30 0 -34 -5 -58 -57z m113 -125 c0 -5 -25
-8 -55 -8 -30 0 -55 2 -55 5 0 2 12 30 26 62 l26 58 28 -55 c16 -30 29 -58 30
-62z"/>
</g>
</svg>
